<svg width="946" height="665" viewBox="0 0 946 665" fill="none" xmlns="http://www.w3.org/2000/svg">
<path d="M902.495 498.654C910.461 514.211 911.307 536.81 911.307 536.81C911.307 536.81 863.876 578.622 747.396 602.764C740.959 592.681 735.521 581.997 731.158 570.861C731.158 570.861 895.791 492.858 902.495 498.654Z" fill="#5865F2"/>
<path d="M892.014 550.189C890.587 551.044 889.103 551.938 887.507 552.85C886.147 539.175 883.345 520.502 877.663 505.628L882.062 503.946C887.705 518.613 890.559 536.496 892.014 550.189Z" fill="#3442D9"/>
<path d="M861.721 512.024L866.082 510.229C872.889 524.137 876.502 542.787 878.379 557.927C876.932 558.707 875.43 559.487 873.87 560.287C872.068 545.052 868.546 525.799 861.721 512.024Z" fill="#3442D9"/>
<path d="M844.108 519.484L848.506 517.577C856.904 529.63 861.554 548.481 864.137 565.086L859.626 567.182C857.118 550.389 852.521 531.011 844.108 519.484Z" fill="#3442D9"/>
<path d="M808.323 535.296L812.646 533.389C818.596 548.995 821.438 568.195 822.781 582.096C821.277 582.632 819.716 583.168 818.155 583.685C816.87 569.991 814.121 550.658 808.323 535.296Z" fill="#3442D9"/>
<path d="M792.742 542.309L797.046 540.402C803.494 554.067 806.97 572.021 808.826 586.766L804.218 588.223C802.419 573.572 799.037 555.598 792.742 542.309Z" fill="#3442D9"/>
<path d="M775.696 550.144L780.038 548.143C787.338 559.393 791.655 576.044 794.211 591.199L789.602 592.525C787.027 577.388 782.787 560.888 775.696 550.144Z" fill="#3442D9"/>
<path d="M764.086 261.944C764.086 261.944 803.693 225.786 869.386 249.856C870.166 250.139 870.877 250.583 871.472 251.16C872.068 251.737 872.534 252.433 872.841 253.203C873.148 253.973 873.289 254.799 873.253 255.626C873.218 256.454 873.008 257.265 872.636 258.006C864.552 274.182 839.424 318.275 806.552 316.545L764.086 261.944Z" fill="#5865F2"/>
<path d="M869.654 263.727C868.946 265.03 868.181 266.427 867.342 267.881C846.271 260.568 806.235 251.595 772.287 272.494L769.383 268.747C805.413 246.311 847.865 256.061 869.654 263.727Z" fill="#3442D9"/>
<path d="M782.102 285.124L779.083 281.227C807.398 270.392 837.969 274.978 859.07 280.973C858.135 282.315 857.201 283.656 856.154 285.018C836.205 279.543 808.163 275.564 782.102 285.124Z" fill="#3442D9"/>
<path d="M790.398 295.765C809.332 291.892 828.396 294.417 844.306 298.842C842.995 300.13 841.664 301.38 840.277 302.63C826.218 298.947 809.889 297.027 793.625 299.963L790.398 295.765Z" fill="#3442D9"/>
<path d="M575.108 94.6041C575.108 94.6041 614.228 16.5905 681.669 36.6416C683.258 37.1168 684.697 37.9913 685.85 39.1814C687.003 40.3715 687.831 41.8373 688.254 43.4384C688.677 45.0396 688.682 46.7225 688.268 48.326C687.854 49.9295 687.034 51.3999 685.888 52.5965L655.919 83.8431C655.919 83.8431 606.329 78.0309 575.108 94.6041Z" fill="#5865F2"/>
<path d="M688.22 48.5149C687.801 50.0608 686.999 51.4764 685.888 52.6314L685.738 52.8016C667.421 49.143 625.402 45.9973 599.988 86.1578C597.862 86.6029 595.735 87.0857 593.628 87.6437C620.806 39.6811 669.146 44.3901 688.22 48.5149Z" fill="#3442D9"/>
<path d="M645.666 63.8183C655.467 61.2641 665.736 61.0758 675.623 63.2692L671.69 67.3761C663.458 65.9078 655.006 66.2455 646.917 68.3658C637.501 71.0123 628.98 76.1612 622.263 83.2638C620.002 83.4085 617.686 83.5913 615.35 83.8118C623.163 74.1983 633.747 67.2181 645.666 63.8183V63.8183Z" fill="#3442D9"/>
<path d="M644.533 488.414L643.54 518.835L424.715 619.623L303.184 538.79L312.426 491.439L644.533 488.414Z" fill="url(#paint0_linear_18697_128583)"/>
<path d="M644.534 488.413L424.498 581.98L302.068 505.312L556.102 435.809L644.534 488.413Z" fill="#808AFF"/>
<path d="M365.674 334.066L388.758 301.523C389.175 300.94 389.747 300.484 390.408 300.206C391.069 299.928 391.795 299.838 392.504 299.947C393.214 300.056 393.879 300.36 394.426 300.824C394.973 301.288 395.381 301.894 395.604 302.575L408.424 343.023L378.565 393.204L361.773 353.588L365.674 334.066Z" fill="#EB459F"/>
<path d="M385.191 405.211C356.613 435.753 274.559 518.569 215.093 528.887L245.052 397.869C245.052 397.869 289.636 430.869 365.674 334.066L388.78 380.497C390.77 384.492 391.493 388.998 390.852 393.414C390.211 397.83 388.236 401.946 385.191 405.211V405.211Z" fill="url(#paint1_linear_18697_128583)"/>
<path d="M68.4186 531.918C68.4186 531.918 56.6985 548.285 58.3152 567.248C58.3152 567.248 92.6372 601.53 119.131 604.878L121.523 559.054L68.4186 531.918Z" fill="#FFF2A6"/>
<path d="M683.419 199.585C683.419 199.585 745.944 147.937 722.713 109.242C699.483 70.5481 599.357 68.095 562.69 97.7804C521.541 131.105 497.755 234.627 536.672 242.327C536.672 242.327 558.501 247.057 576.152 226.704C590.678 209.925 617.932 263.578 617.932 263.578L688.406 211.489L683.419 199.585Z" fill="url(#paint2_linear_18697_128583)"/>
<path d="M715.187 186.376C696.998 191.92 667.334 200.805 644.191 213.248C634.692 218.348 627.255 226.578 623.146 236.538L605.101 280.1C604.708 281.056 604.52 282.082 604.548 283.115C604.576 284.147 604.819 285.163 605.263 286.096C605.706 287.029 606.34 287.859 607.124 288.533C607.907 289.207 608.823 289.71 609.812 290.01L618.835 292.725C622.389 293.793 625.582 295.816 628.063 298.573C630.545 301.331 632.22 304.716 632.906 308.36C641.498 353.952 674.917 516.055 724.888 574.828C724.888 574.828 819.93 564.869 910.52 501.578C913.723 499.361 916.087 496.134 917.235 492.414C918.382 488.694 918.245 484.697 916.846 481.064C900.932 440.013 842.83 307.658 728.003 219.559C725.614 217.729 723.817 215.238 722.836 212.396C721.854 209.553 721.732 206.485 722.484 203.574L724.567 195.469C724.894 194.185 724.876 192.838 724.515 191.564C724.154 190.29 723.463 189.133 722.512 188.211C721.56 187.288 720.382 186.633 719.096 186.311C717.81 185.989 716.462 186.011 715.187 186.376V186.376Z" fill="#242145"/>
<path d="M231.288 370.189C231.612 370.827 250.196 345.613 259.188 333.195C260.502 331.391 261.224 329.224 261.255 326.993C261.286 324.761 260.624 322.575 259.361 320.735C257.67 318.26 255.712 315.335 253.887 312.504C249.342 305.57 242.715 300.251 234.957 297.311L158.305 268.016L117.174 245.667C111.684 242.684 105.406 241.464 99.1965 242.176L75.5267 244.891C71.2533 245.382 67.1331 246.774 63.4392 248.976C59.7454 251.178 56.5622 254.139 54.1006 257.662L38.0284 280.679C30.5095 291.456 26.6778 304.371 27.1045 317.5L27.4454 327.605C27.6147 332.958 28.8417 338.224 31.0558 343.102C33.2699 347.979 36.4275 352.372 40.347 356.026L59.974 374.376C62.8472 377.081 66.3497 379.028 70.1653 380.041C73.9808 381.054 77.9889 381.102 81.8274 380.179C97.6897 376.323 124.531 364.876 145.89 330.63L231.288 370.189Z" fill="#FFE75C"/>
<path d="M155.454 325.867L203.796 340.646C217.698 344.887 229.541 354.109 237.052 366.54C248.619 385.69 264.262 415.827 267.643 443.343C267.643 443.343 272.767 462.718 249.935 480.033C243.817 484.762 239.196 491.154 236.625 498.442L202.221 593.687C202.221 593.687 100.171 594.275 48.388 518.611L96.3464 375.331C112.556 364.67 126.091 350.423 135.903 333.697C137.801 330.381 140.765 327.803 144.314 326.382C147.863 324.961 151.789 324.779 155.454 325.867V325.867Z" fill="#FFC619"/>
<path d="M541.601 226.106C527.909 221.956 522.578 199.603 529.694 176.179C536.81 152.754 553.679 137.129 567.371 141.279C581.063 145.429 586.394 167.782 579.278 191.207C572.162 214.631 555.293 230.256 541.601 226.106Z" fill="white"/>
<path d="M551.823 170.738C563.791 174.434 568.905 192.228 563.359 210.648C562.053 214.973 560.176 219.104 557.777 222.933C552.389 226.389 546.743 227.645 541.552 226.076C528.868 222.234 523.385 202.748 528.311 181.282C535.083 172.755 543.933 168.337 551.823 170.738Z" fill="black"/>
<path d="M77.3936 317.097C79.9782 317.075 82.4982 316.287 84.6351 314.835L124.882 285.147C127.399 283.284 130.33 282.058 133.426 281.575C136.521 281.091 139.687 281.365 142.654 282.372L153.981 286.203L174.836 292.03C175.141 292.137 175.464 292.18 175.785 292.156C176.107 292.133 176.42 292.044 176.706 291.895C176.992 291.746 177.244 291.539 177.447 291.289C177.649 291.038 177.798 290.749 177.885 290.438C177.971 290.128 177.992 289.803 177.947 289.484C177.903 289.165 177.793 288.859 177.625 288.584C177.457 288.309 177.234 288.071 176.97 287.886C176.706 287.701 176.407 287.571 176.092 287.506L155.331 281.716L144.116 277.903C140.429 276.659 136.495 276.323 132.65 276.926C128.805 277.528 125.163 279.05 122.034 281.362L81.8624 311.086C80.443 312.036 78.7633 312.523 77.0552 312.479C75.3471 312.435 73.6949 311.862 72.3265 310.84L54.2348 297.318C53.5121 296.781 52.904 296.105 52.4463 295.33C51.9886 294.555 51.6906 293.696 51.5696 292.805C51.4486 291.913 51.5072 291.006 51.7418 290.137C51.9764 289.269 52.3825 288.455 52.936 287.745L66.5148 270.201C67.3753 269.077 68.4511 268.135 69.6795 267.43C70.908 266.725 72.2645 266.271 73.6702 266.094L88.131 264.261C88.9233 264.168 89.7262 264.245 90.4869 264.485C91.2476 264.725 91.9488 265.122 92.5446 265.652C93.1403 266.182 93.617 266.832 93.9433 267.559C94.2696 268.286 94.4382 269.074 94.438 269.871L94.2527 276.949C94.2158 278.327 93.7517 279.66 92.9245 280.763C92.0972 281.867 90.9476 282.687 89.634 283.111L81.133 285.87C80.6938 286.016 80.2272 286.061 79.7682 286.002C79.3092 285.942 78.8696 285.78 78.4822 285.527C78.0948 285.274 77.7696 284.937 77.531 284.541C77.2924 284.145 77.1465 283.7 77.1043 283.24L76.7429 279.383C76.7184 279.072 76.6322 278.769 76.4894 278.492C76.3465 278.214 76.1499 277.968 75.9108 277.767C75.6717 277.566 75.395 277.415 75.0968 277.322C74.7987 277.229 74.485 277.196 74.174 277.225C73.863 277.255 73.5609 277.345 73.2854 277.492C73.0098 277.639 72.7663 277.84 72.5689 278.081C72.3716 278.323 72.2244 278.602 72.1359 278.901C72.0474 279.2 72.0194 279.514 72.0535 279.824L72.4149 283.681C72.5246 284.843 72.8945 285.966 73.4973 286.967C74.1001 287.967 74.9203 288.82 75.8972 289.461C76.8742 290.102 77.9829 290.516 79.1416 290.672C80.3002 290.827 81.479 290.721 82.5909 290.36L91.0919 287.582C93.3265 286.857 95.2822 285.46 96.6913 283.582C98.1005 281.704 98.8944 279.437 98.9642 277.091L99.1494 269.994C99.1899 268.509 98.908 267.032 98.3231 265.666C97.7382 264.3 96.8641 263.076 95.7609 262.079C94.6577 261.083 93.3516 260.336 91.9322 259.891C90.5128 259.446 89.0138 259.314 87.5383 259.502L73.0775 261.336C71.0573 261.591 69.1076 262.243 67.3411 263.254C65.5746 264.266 64.0263 265.617 62.7856 267.23L49.2068 284.774C48.2722 285.978 47.587 287.355 47.1914 288.827C46.7959 290.298 46.6979 291.833 46.903 293.342C47.1082 294.851 47.6125 296.305 48.3865 297.617C49.1605 298.929 50.1885 300.075 51.4107 300.986L69.6154 314.507C71.8593 316.188 74.5886 317.097 77.3936 317.097V317.097Z" fill="#FFC619"/>
<path d="M154.472 286.236C157.297 253.245 177.428 247.991 177.428 247.991C177.428 247.991 229.248 235.252 209.352 206.25C189.457 177.248 201.276 145.429 201.276 145.429C167.13 174.328 144.169 133.336 144.169 133.336C130.261 178.831 92.7933 151.192 92.7933 151.192C108.179 179.015 68.5331 211.654 43.3583 178.843C16.6648 144.065 64.3753 127.792 64.3753 127.792C64.3753 127.792 47.4029 82.8879 84.7493 66.524C122.735 49.893 142.607 87.9479 142.607 87.9479C197.069 26.8414 231.919 103.713 231.919 103.713C301.693 83.8501 335.672 123.969 343.567 160.023C346.054 166.483 346.28 173.032 359.126 175.48C394.967 182.35 404.074 206.125 350.075 213.569C375.386 266.706 313.89 241.859 312.549 241.208C300.155 235.426 263.589 227.111 264.814 250.009C266.036 272.324 260.02 281.243 247.176 285.702C238.074 288.879 237.018 298.54 237.644 305.802C237.691 306.71 237.519 307.616 237.14 308.443C236.762 309.27 236.189 309.993 235.471 310.552C234.753 311.11 233.91 311.487 233.015 311.65C232.119 311.814 231.198 311.759 230.328 311.49L154.472 286.236Z" fill="url(#paint3_linear_18697_128583)"/>
<path d="M250.617 72.0989C250.617 72.0989 241.181 43.2815 255.515 48.8641C269.848 54.4467 289.863 58.3402 292.256 74.7197C294.65 91.0992 298.287 104.347 287.604 101.096C276.92 97.8453 257.674 99.9324 257.674 99.9324L250.617 72.0989Z" fill="#91FFAD"/>
<path d="M346.024 213.652C346.024 213.652 323.613 215.663 305.662 210.252C305.374 210.174 305.067 210.195 304.793 210.313C304.519 210.432 304.293 210.639 304.152 210.902C304.011 211.166 303.964 211.469 304.018 211.762C304.073 212.055 304.225 212.322 304.45 212.517C318.898 224.781 356.581 253.699 346.024 213.652Z" fill="black"/>
<path d="M233.52 90.5308C233.52 90.5308 239.341 119.727 218.256 123.01C217.592 123.113 216.915 123.077 216.265 122.906C215.616 122.735 215.009 122.432 214.482 122.015L192.049 103.945C188.421 101.017 185.417 97.3934 183.212 93.2881C181.007 89.1829 179.647 84.6786 179.211 80.0404C178.107 68.3212 178.365 54.279 186.169 54.7422C198.157 55.4448 220.101 57.2757 230.492 81.7399C231.709 84.5946 232.721 87.5323 233.52 90.5308V90.5308Z" fill="#91FFAD"/>
<path d="M250.685 90.2994C250.915 90.2974 251.144 90.258 251.362 90.1826C267.275 85.3291 270.432 67.4872 270.56 66.7524C270.664 66.1354 270.518 65.5023 270.155 64.9926C269.791 64.4829 269.24 64.1383 268.622 64.0345C268.005 63.9308 267.371 64.0764 266.861 64.4394C266.35 64.8023 266.005 65.3529 265.901 65.97C265.902 66.1394 263.071 81.6832 249.999 85.6922C249.455 85.8539 248.988 86.2059 248.684 86.6837C248.38 87.1614 248.258 87.7328 248.341 88.293C248.425 88.8531 248.708 89.3644 249.138 89.733C249.569 90.1016 250.118 90.3027 250.685 90.2994V90.2994Z" fill="#29CC7A"/>
<path d="M278.397 92.7729C278.93 92.7637 279.444 92.5745 279.855 92.2361C280.266 91.8976 280.55 91.43 280.661 90.9095C280.771 90.389 280.702 89.8464 280.464 89.3703C280.226 88.8941 279.834 88.5126 279.351 88.2879C278.633 87.9533 261.707 80.56 250.769 88.6973C250.488 88.8676 250.246 89.0947 250.058 89.364C249.87 89.6334 249.74 89.9391 249.678 90.2614C249.615 90.5837 249.621 90.9156 249.694 91.2356C249.768 91.5556 249.908 91.8566 250.105 92.1194C250.302 92.3822 250.552 92.6009 250.838 92.7614C251.125 92.9219 251.442 93.0207 251.77 93.0514C252.097 93.0821 252.427 93.044 252.739 92.9397C253.05 92.8353 253.337 92.6669 253.579 92.4454C262.341 85.9392 277.265 92.4783 277.416 92.5527C277.723 92.6975 278.058 92.7727 278.397 92.7729V92.7729Z" fill="#29CC7A"/>
<path d="M221.472 108.836C221.958 108.828 222.43 108.675 222.826 108.395L237.126 98.1678C238.36 97.2873 239.338 96.0947 239.958 94.7124C240.579 93.3301 240.821 91.8078 240.659 90.3014C240.497 88.795 239.937 87.3588 239.036 86.1399C238.135 84.9209 236.926 83.9632 235.533 83.3647L209.635 72.2213C209.061 71.9788 208.415 71.9733 207.837 72.2059C207.259 72.4385 206.797 72.8903 206.552 73.4624C206.429 73.7459 206.364 74.0508 206.36 74.3596C206.356 74.6684 206.414 74.975 206.529 75.2614C206.645 75.5479 206.816 75.8085 207.033 76.0283C207.251 76.2482 207.509 76.4227 207.794 76.5419L233.673 87.6855C234.32 87.934 234.886 88.3559 235.308 88.9047C235.73 89.4535 235.993 90.108 236.067 90.7962C236.141 91.4844 236.024 92.1797 235.728 92.8056C235.432 93.4315 234.969 93.9639 234.39 94.3441L220.091 104.534C219.584 104.896 219.241 105.445 219.139 106.06C219.036 106.674 219.182 107.304 219.544 107.812C219.761 108.123 220.049 108.378 220.384 108.556C220.72 108.734 221.092 108.83 221.472 108.836Z" fill="#29CC7A"/>
<path d="M625.921 414.008L626.178 458.613L563.976 543.271L289.689 544.852L290.339 500.675L625.921 414.008Z" fill="#3442D9"/>
<path d="M625.921 414.008L342.025 415.644L263.972 509.504L555.675 508.933L625.921 414.008Z" fill="#5865F2"/>
<path d="M256.556 504.237C257.664 503.497 287.12 438.977 352.812 466.172C418.504 493.366 372.549 506.881 336.107 510.046C299.664 513.211 279.904 533.897 279.904 533.897L256.556 504.237Z" fill="#FF78B9"/>
<path d="M300.799 569.595C300.799 569.595 261.826 588.151 246.735 601.601C234.287 612.702 152.376 684.337 112.556 624.696C106.009 614.64 102.058 603.121 101.057 591.167C99.3724 573.503 102.921 548.451 107.808 503.797C114.019 446.903 114.43 345.059 178.165 356.36C237.072 366.787 228.516 458.194 187.886 535.708C187.886 535.708 247.483 502.541 249.517 502.303C251.55 502.066 297.595 490.959 300.799 569.595Z" fill="#FFE75C"/>
<path d="M170.892 575.461C171.321 575.459 171.741 575.342 172.108 575.121C172.475 574.9 172.775 574.584 172.977 574.207L212.934 497.487C213.223 496.934 213.28 496.288 213.093 495.693C212.906 495.098 212.489 494.601 211.936 494.312C211.382 494.023 210.736 493.966 210.139 494.153C209.543 494.34 209.046 494.756 208.757 495.309L168.781 572.029C168.498 572.585 168.447 573.231 168.637 573.825C168.827 574.419 169.244 574.915 169.798 575.204C170.135 575.382 170.512 575.47 170.892 575.461V575.461Z" fill="#FFC619"/>
<path d="M352.129 497.965C352.903 498.205 371.862 492.336 380.352 520.237C386.115 539.458 342.751 505.528 319.445 512.57C296.139 519.612 352.129 497.965 352.129 497.965Z" fill="#FF78B9"/>
<path d="M512.024 441.409L564.442 437.795L534.99 391.871L512.024 441.409Z" fill="#57F287"/>
<path d="M534.99 391.871L497.627 421.598L512.024 441.409L534.99 391.871Z" fill="#91FFAD"/>
<path d="M448.874 400.929L404.63 394.371L429.942 342.994L448.874 400.929Z" fill="#8CD9FF"/>
<path d="M429.942 342.994L468.377 371.663L448.874 400.93L429.942 342.994Z" fill="#66BCFF"/>
<path d="M393.143 297.395C397.684 294.112 420.017 281.675 446.191 288.506C456.479 291.339 465.429 297.722 471.45 306.523C477.967 315.896 489.701 331.375 497.827 335.394C517.838 345.291 482.087 360.46 463.917 336.662L463.275 336.477C464.093 347.558 462.445 362.38 448.38 367.487C436.966 371.618 441.189 339.296 426.243 325.53L425.733 325.382C425.733 325.382 440.863 374.23 413.956 354.868C366.937 321.016 388.114 301.019 393.143 297.395Z" fill="#FF78B9"/>
<path d="M484.132 476.634L529.626 487.796C529.859 487.852 530.101 487.86 530.337 487.82C530.573 487.78 530.799 487.692 531 487.563L553.131 472.773C553.407 472.592 553.624 472.336 553.758 472.034C553.891 471.733 553.935 471.399 553.883 471.074C553.832 470.748 553.687 470.444 553.467 470.199C553.247 469.953 552.96 469.776 552.642 469.69L509.761 457.571C509.527 457.508 509.282 457.494 509.042 457.531C508.802 457.568 508.572 457.655 508.368 457.786L483.624 473.532C483.342 473.712 483.12 473.971 482.983 474.276C482.847 474.581 482.803 474.92 482.857 475.25C482.911 475.579 483.061 475.886 483.287 476.132C483.514 476.378 483.807 476.553 484.132 476.634V476.634Z" fill="#FFE75C"/>
<path d="M531.336 467.251L564.15 465.556C564.392 465.545 564.63 465.484 564.846 465.375C565.063 465.267 565.255 465.115 565.409 464.928L576.805 451.085C577.057 450.832 577.224 450.507 577.283 450.155C577.341 449.802 577.288 449.441 577.13 449.12C576.973 448.799 576.719 448.536 576.404 448.367C576.089 448.198 575.729 448.131 575.375 448.176L542.541 449.871C542.066 449.91 541.622 450.128 541.301 450.48L529.906 464.342C529.664 464.599 529.507 464.922 529.455 465.271C529.403 465.619 529.458 465.975 529.613 466.291C529.768 466.607 530.017 466.868 530.324 467.039C530.632 467.211 530.985 467.285 531.336 467.251Z" fill="#FFC619"/>
<path d="M397.662 427.613L364.178 427.581C363.969 427.582 363.762 427.627 363.571 427.712C363.38 427.797 363.209 427.921 363.069 428.076L350.542 441.737C350.347 441.953 350.218 442.22 350.172 442.507C350.125 442.793 350.163 443.088 350.28 443.353C350.397 443.619 350.588 443.846 350.831 444.005C351.074 444.165 351.358 444.251 351.649 444.253L385.114 444.286C385.324 444.285 385.532 444.243 385.726 444.161C385.92 444.079 386.095 443.959 386.242 443.809L398.75 430.129C398.953 429.918 399.089 429.652 399.141 429.364C399.193 429.076 399.158 428.779 399.042 428.51C398.926 428.242 398.733 428.013 398.487 427.854C398.242 427.694 397.955 427.611 397.662 427.613V427.613Z" fill="#91FFAD"/>
<path d="M413.507 437.215L376.594 437.184C376.364 437.181 376.136 437.227 375.926 437.319C375.715 437.411 375.526 437.547 375.372 437.718L361.572 452.854C361.355 453.09 361.211 453.383 361.157 453.699C361.103 454.015 361.142 454.34 361.27 454.634C361.397 454.928 361.607 455.179 361.874 455.356C362.142 455.534 362.455 455.63 362.775 455.633L399.689 455.665C399.921 455.664 400.151 455.617 400.364 455.525C400.577 455.433 400.769 455.299 400.929 455.131L414.729 439.994C414.957 439.76 415.109 439.464 415.167 439.144C415.225 438.823 415.186 438.492 415.055 438.194C414.924 437.895 414.706 437.643 414.431 437.469C414.155 437.294 413.833 437.206 413.507 437.215V437.215Z" fill="#8CD9FF"/>
<path d="M605.383 515.384L600.435 513.417C599.084 512.886 597.925 511.959 597.111 510.758C596.297 509.557 595.866 508.137 595.874 506.687C595.96 495.394 593.602 468.794 568.426 478.369C559.947 481.598 552.265 485.99 545.063 485.223C541.088 484.784 537.239 483.565 533.737 481.636C518.918 473.648 496.894 484.013 504.485 506.574C501.161 521.929 501.086 537.809 504.264 553.195C505.367 557.994 507.659 562.44 510.93 566.124C514.2 569.808 518.345 572.613 522.984 574.28L542.225 581.265C546.451 582.824 551.005 583.282 555.458 582.598C559.911 581.914 564.116 580.109 567.678 577.354L571.429 574.396C576.209 570.669 581.902 568.29 587.915 567.507V567.507" fill="#66BCFF"/>
<path d="M416.316 496.147C416.681 496.139 417.039 496.05 417.364 495.885C417.689 495.72 417.973 495.485 418.195 495.195L467.574 428.415C467.758 428.167 467.892 427.885 467.967 427.585C468.042 427.286 468.057 426.974 468.011 426.668C467.966 426.363 467.861 426.069 467.701 425.804C467.542 425.539 467.333 425.308 467.084 425.124C466.836 424.94 466.553 424.807 466.253 424.732C465.953 424.657 465.641 424.642 465.335 424.688C465.029 424.733 464.735 424.838 464.47 424.997C464.205 425.156 463.974 425.366 463.789 425.614L414.41 492.394C414.227 492.643 414.095 492.926 414.021 493.227C413.948 493.527 413.934 493.839 413.982 494.145C414.029 494.45 414.136 494.744 414.297 495.008C414.458 495.272 414.669 495.502 414.919 495.685C415.32 495.99 415.812 496.153 416.316 496.147Z" fill="#3442D9"/>
<path d="M466.867 501.991L433.219 496.219L454.549 463.554L466.867 501.991Z" fill="#57F287"/>
<path d="M454.548 463.554L477.689 486.722L466.867 501.992L454.548 463.554Z" fill="#91FFAD"/>
<path d="M502.425 541.422C502.183 538.676 502.054 535.91 501.981 533.124C505.877 538.748 512.419 546.051 523.454 554.513C523.702 554.702 523.911 554.938 524.068 555.208C524.226 555.477 524.328 555.775 524.37 556.084C524.412 556.393 524.393 556.708 524.313 557.009C524.234 557.311 524.095 557.594 523.906 557.842C523.717 558.09 523.481 558.299 523.211 558.456C522.941 558.613 522.643 558.716 522.334 558.758C522.024 558.8 521.709 558.78 521.407 558.701C521.105 558.621 520.822 558.483 520.574 558.294C513.945 553.326 507.861 547.67 502.425 541.422V541.422Z" fill="#3F99F2"/>
<path d="M531.708 538.413C531.213 538.413 530.731 538.258 530.33 537.969C520.191 530.849 511.108 522.334 503.352 512.678C503.698 510.606 504.063 508.552 504.523 506.573C504.522 506.423 504.427 506.273 504.369 506.104C512.281 517.007 521.981 526.496 533.059 534.17C533.312 534.35 533.527 534.578 533.691 534.841C533.855 535.103 533.966 535.396 534.017 535.702C534.068 536.008 534.058 536.32 533.987 536.622C533.916 536.924 533.787 537.209 533.606 537.461C533.388 537.759 533.102 538.001 532.772 538.167C532.442 538.332 532.077 538.417 531.708 538.413Z" fill="#3F99F2"/>
<path d="M545.062 485.224C546.041 485.293 547.024 485.288 548.002 485.207L548.797 489.192C548.994 490.164 549.402 491.08 549.992 491.877C550.582 492.674 551.34 493.332 552.213 493.804C553.085 494.276 554.051 494.552 555.041 494.611C556.032 494.67 557.023 494.511 557.946 494.146L572.027 488.55C572.314 488.436 572.622 488.379 572.931 488.384C573.241 488.389 573.546 488.454 573.83 488.576C574.115 488.699 574.372 488.876 574.587 489.098C574.803 489.319 574.973 489.581 575.087 489.869C575.201 490.156 575.258 490.463 575.253 490.772C575.249 491.081 575.183 491.386 575.061 491.67C574.938 491.954 574.761 492.211 574.539 492.426C574.317 492.642 574.054 492.811 573.767 492.925L559.686 498.502C558.359 499.046 556.941 499.329 555.507 499.336C552.839 499.35 550.249 498.439 548.177 496.759C546.106 495.079 544.682 492.734 544.148 490.122L543.082 484.896C543.78 485.043 544.44 485.152 545.062 485.224Z" fill="#3F99F2"/>
<path d="M257.113 168.229C248.132 168.196 240.867 163.973 240.886 158.797C240.905 153.621 248.201 149.451 257.181 149.484C266.162 149.516 273.427 153.739 273.408 158.916C273.389 164.092 266.093 168.262 257.113 168.229Z" fill="#EB459F"/>
<path d="M305.844 145.705C304.78 137.709 307.756 130.718 312.491 130.089C317.226 129.46 321.927 135.433 322.991 143.429C324.055 151.424 321.079 158.416 316.344 159.044C311.609 159.673 306.908 153.701 305.844 145.705Z" fill="#EB459F"/>
<path d="M255.659 155.692C254.618 156.072 253.673 156.676 252.893 157.462C252.112 158.247 251.515 159.195 251.143 160.238C250.771 161.281 250.634 162.393 250.741 163.494C250.849 164.596 251.198 165.661 251.765 166.612C254.885 171.902 260.105 178.515 267.62 181.182C275.135 183.849 283.359 182.052 289.131 179.929C290.172 179.55 291.117 178.945 291.897 178.16C292.678 177.374 293.275 176.426 293.647 175.383C294.019 174.34 294.156 173.229 294.049 172.127C293.941 171.025 293.592 169.961 293.025 169.009C289.905 163.738 284.704 157.125 277.17 154.439C269.636 151.753 261.431 153.589 255.659 155.692Z" fill="white"/>
<path d="M269.904 181.831C269.589 180.82 269.424 179.768 269.415 178.709C269.376 171.915 275.562 166.365 283.231 166.321C285.158 166.291 287.073 166.642 288.865 167.352C290.657 168.061 292.291 169.117 293.675 170.458C294.292 172.312 294.162 174.333 293.315 176.094C292.467 177.855 290.967 179.218 289.131 179.894C283.041 182.37 276.366 183.042 269.904 181.831V181.831Z" fill="black"/>
<path d="M314.919 139.316C314.117 139.013 313.258 138.89 312.403 138.955C311.548 139.021 310.718 139.273 309.971 139.693C309.224 140.114 308.579 140.693 308.08 141.39C307.582 142.087 307.243 142.885 307.087 143.727C306.247 148.419 305.946 155.027 309.067 160.316C312.188 165.606 317.859 168.792 322.315 170.479C323.118 170.781 323.977 170.904 324.832 170.839C325.687 170.774 326.517 170.522 327.264 170.101C328.011 169.68 328.656 169.101 329.154 168.404C329.653 167.707 329.992 166.909 330.148 166.067C331.006 161.375 331.307 154.768 328.262 149.477C325.216 144.187 319.376 140.984 314.919 139.316Z" fill="white"/>
<path d="M309.6 161.237C310.122 160.023 310.863 158.915 311.786 157.969C316.619 153.066 324.951 153.526 330.635 158.989C330.689 161.337 330.506 163.683 330.091 165.994C329.935 166.836 329.596 167.634 329.098 168.331C328.6 169.028 327.954 169.607 327.207 170.028C326.46 170.449 325.63 170.701 324.775 170.766C323.92 170.831 323.061 170.708 322.259 170.406C317.197 168.721 312.777 165.52 309.6 161.237V161.237Z" fill="black"/>
<path d="M703.81 308.158C703.81 308.158 846.428 398.958 816.918 490.26C807.663 519.054 777.053 517.499 768.214 566.221C714.93 583.166 730.633 558.251 707.937 569.693L703.81 308.158Z" fill="black"/>
<path d="M705.05 140.645C701.059 146.172 695.517 150.393 689.125 152.775C682.733 155.157 675.777 155.593 669.137 154.026C682.048 152.67 694.404 148.066 705.05 140.645V140.645Z" fill="#5865F2"/>
<path d="M690.087 127.31C676.856 139.77 662.377 144.954 646.838 142.88L646.649 142.73C646.432 142.556 646.276 142.319 646.201 142.051C646.125 141.784 646.135 141.5 646.229 141.239C646.323 140.978 646.496 140.752 646.724 140.593C646.952 140.435 647.224 140.351 647.502 140.354C655.039 140.31 671.531 137.825 682.375 116.683C689.12 103.469 699.158 102.508 705.558 107.91C701.26 115.016 696.06 121.537 690.087 127.31V127.31Z" fill="#5865F2"/>
<path d="M657.543 149.799C656.466 149.241 655.37 148.645 654.273 147.936C681.874 147.382 700.342 124.803 708.802 111.579C710.392 114.386 711.359 117.503 711.634 120.717C711.909 123.931 711.488 127.166 710.398 130.203C703.405 136.916 695.103 142.12 686.011 145.491C676.918 148.862 667.228 150.329 657.543 149.799V149.799Z" fill="#5865F2"/>
<path d="M654.273 147.993C651.715 146.436 649.257 144.722 646.913 142.859C662.376 144.934 676.856 139.75 690.162 127.289C696.162 121.521 701.387 115 705.709 107.889C706.95 108.969 708.018 110.233 708.877 111.635C700.342 124.859 681.874 147.438 654.273 147.993Z" fill="#3442D9"/>
<path d="M657.543 149.802C667.223 150.339 676.911 148.881 686.004 145.52C695.096 142.158 703.4 136.965 710.397 130.262C709.453 133.215 708.112 136.028 706.413 138.622C705.984 139.284 705.516 139.926 705.049 140.512C694.416 147.981 682.059 152.63 669.137 154.026C665.105 153.128 661.207 151.708 657.543 149.802Z" fill="#3442D9"/>
<path d="M577.013 225.815C583.9 217.588 592.13 203.745 595.605 182.25C601.922 143.799 640.957 155.639 634.825 190.192C630.245 216.098 610.058 228.109 597.67 233.131C590.596 225.248 582.899 220.398 577.013 225.815Z" fill="black"/>
<path d="M602.259 208.861C611.965 202.707 622.656 200.631 631.108 202.446C623.409 220.032 607.877 228.93 597.651 233.129C594.718 229.609 591.115 226.706 587.049 224.589C590.712 218.15 595.944 212.74 602.259 208.861V208.861Z" fill="#FF78B9"/>
<path d="M635.745 156.872C636.199 156.879 636.646 156.755 637.032 156.517C637.418 156.278 637.728 155.933 637.924 155.524C638.12 155.114 638.194 154.658 638.138 154.207C638.082 153.757 637.898 153.332 637.607 152.984C633.295 148.323 627.479 145.325 621.178 144.515C614.876 143.705 608.49 145.134 603.137 148.552C602.869 148.708 602.635 148.916 602.448 149.162C602.26 149.408 602.123 149.689 602.044 149.989C601.966 150.288 601.947 150.6 601.989 150.906C602.03 151.213 602.132 151.508 602.289 151.776C602.445 152.043 602.652 152.277 602.899 152.464C603.146 152.651 603.427 152.788 603.726 152.867C604.026 152.946 604.338 152.964 604.645 152.923C604.952 152.881 605.248 152.779 605.516 152.623C622.21 142.815 633.476 155.511 633.988 156.11C634.211 156.354 634.482 156.548 634.785 156.679C635.088 156.81 635.415 156.876 635.745 156.872V156.872Z" fill="#3F99F2"/>
<path d="M694.462 294.626C694.462 294.626 846.58 425.347 787.746 499.371C737.555 562.599 778.559 572.827 737.441 621.322C695.818 670.497 587.933 567.432 587.933 567.432C587.933 567.432 574.846 536.265 605.383 515.385L666.182 540.368C666.182 540.368 619.852 367.988 639.106 331.439C655.546 300.177 694.462 294.626 694.462 294.626Z" fill="#242145"/>
<path d="M711.737 610.987C737.802 575.98 717.938 526.255 700.869 490.725C676.626 439.803 643.084 361.004 667.769 305.715C671.262 298.078 676.582 291.416 683.259 286.315L684.761 285.309C677.282 262.767 659.113 245.575 641.108 230.81C637.928 228.287 634.635 225.784 631.305 223.338C634.918 219.238 639.23 215.81 644.041 213.214C645.431 212.472 646.84 211.73 648.268 211.006C656.147 219.492 663.398 228.54 669.961 238.078C680.146 252.831 688.212 269.517 690.238 287.498C674.879 296.997 669.508 316.414 668.212 333.549C665.476 385.192 690.452 438.989 713.118 484.5C733.493 524.716 753.952 579.462 722.905 619.806C718.343 625.433 713.019 630.398 707.087 634.559C699.686 634.417 692.346 633.191 685.302 630.92C695.574 626.468 704.636 619.634 711.737 610.987V610.987Z" fill="#57F287"/>
<path d="M674.326 573.71C674.101 573.785 673.866 573.825 673.629 573.827C673.127 573.833 672.636 573.679 672.227 573.387C671.819 573.095 671.514 572.68 671.359 572.203L660.403 538.03L666.069 540.369L675.816 570.746C675.915 571.039 675.954 571.348 675.933 571.655C675.911 571.963 675.828 572.263 675.69 572.539C675.551 572.814 675.359 573.06 675.125 573.261C674.891 573.462 674.62 573.614 674.326 573.71V573.71Z" fill="black"/>
<path d="M759.033 359.41C759.49 359.414 759.938 359.284 760.322 359.036C760.706 358.788 761.008 358.434 761.192 358.016C761.376 357.599 761.434 357.136 761.357 356.686C761.281 356.236 761.075 355.819 760.763 355.485C739.903 332.38 722.375 321.828 721.637 321.399C721.102 321.104 720.472 321.028 719.882 321.187C719.292 321.347 718.787 321.73 718.474 322.255C718.161 322.78 718.065 323.406 718.206 324.001C718.347 324.596 718.714 325.112 719.23 325.441C719.419 325.553 737.004 336.104 757.276 358.629C757.496 358.877 757.767 359.075 758.07 359.21C758.373 359.345 758.702 359.413 759.033 359.41V359.41Z" fill="black"/>
<path d="M273.779 566.057C272.691 563.571 274.839 560.233 278.577 558.601C282.315 556.969 286.227 557.662 287.315 560.147C288.402 562.633 286.254 565.971 282.516 567.603C278.778 569.235 274.866 568.543 273.779 566.057Z" fill="#FFC619"/>
<path d="M218.558 518.705L224.043 515.699C256.681 529.156 263.795 567.04 265.126 588.715C263.587 589.646 262.066 590.614 260.583 591.545C259.709 570.753 253.427 530.286 218.558 518.705Z" fill="#FFC619"/>
<path d="M557.385 341.321C560.342 339.411 562.852 336.886 564.743 333.92C566.635 330.953 567.864 327.614 568.347 324.13L570.162 312.168C570.201 311.883 570.331 311.617 570.535 311.413C570.75 311.21 571.029 311.088 571.324 311.07C571.614 311.085 571.889 311.203 572.099 311.404C572.318 311.599 572.46 311.865 572.499 312.155L574.452 324.095C574.99 327.566 576.262 330.882 578.183 333.824C580.104 336.766 582.629 339.266 585.592 341.158L587.2 342.165C587.355 342.281 587.484 342.428 587.579 342.596C587.655 342.774 587.694 342.966 587.695 343.16C587.696 343.354 587.659 343.546 587.585 343.725C587.492 343.894 587.365 344.043 587.211 344.16L585.615 345.186C582.675 347.111 580.178 349.64 578.291 352.604C576.404 355.568 575.171 358.899 574.673 362.376L572.857 374.338C572.821 374.618 572.681 374.874 572.466 375.055C572.25 375.237 571.977 375.338 571.695 375.34C571.412 375.341 571.138 375.244 570.921 375.064C570.81 374.978 570.717 374.871 570.649 374.748C570.58 374.626 570.537 374.491 570.521 374.351L568.568 362.411C568.045 358.933 566.777 355.608 564.851 352.664C562.926 349.719 560.387 347.224 557.409 345.348L555.82 344.341C555.665 344.225 555.536 344.079 555.441 343.91C555.353 343.735 555.307 343.542 555.306 343.346C555.305 343.151 555.349 342.957 555.434 342.781C555.527 342.612 555.655 342.464 555.808 342.346L557.385 341.321Z" fill="#FF78B9"/>
<path d="M776.647 172.225C779.924 170.05 782.697 167.197 784.776 163.86C786.888 160.546 788.255 156.813 788.783 152.92L790.779 139.564C790.816 139.239 790.968 138.938 791.207 138.715C791.32 138.601 791.455 138.51 791.603 138.447C791.752 138.385 791.911 138.352 792.072 138.351C792.233 138.35 792.393 138.381 792.542 138.442C792.691 138.502 792.826 138.592 792.941 138.705C793.183 138.925 793.338 139.225 793.379 139.549L795.51 152.881C796.108 156.783 797.536 160.512 799.697 163.818C801.858 167.123 804.702 169.928 808.038 172.045L809.928 173.144C810.102 173.274 810.244 173.44 810.346 173.631C810.446 173.822 810.492 174.036 810.481 174.251C810.497 174.473 810.453 174.694 810.353 174.892C810.254 175.084 810.113 175.252 809.941 175.384L808.063 176.505C804.777 178.657 801.986 181.484 799.878 184.796C797.769 188.108 796.39 191.831 795.832 195.717L793.855 209.072C793.821 209.388 793.668 209.678 793.426 209.884C793.181 210.081 792.876 210.189 792.561 210.191C792.247 210.193 791.941 210.088 791.693 209.894C791.449 209.691 791.292 209.402 791.255 209.087L789.105 195.755C788.523 191.83 787.086 188.08 784.897 184.769C782.746 181.483 779.916 178.694 776.596 176.592L774.706 175.493C774.532 175.363 774.39 175.197 774.288 175.006C774.186 174.809 774.139 174.588 774.153 174.367C774.139 174.152 774.183 173.937 774.281 173.745C774.38 173.553 774.521 173.385 774.693 173.253L776.647 172.225Z" fill="#91FFAD"/>
<path d="M138.018 216.956C139.97 215.706 141.625 214.046 142.87 212.091C144.114 210.135 144.924 207.936 145.244 205.641L146.405 197.767C146.425 197.57 146.518 197.388 146.666 197.257C146.802 197.125 146.984 197.051 147.173 197.05C147.363 197.049 147.546 197.121 147.683 197.251C147.833 197.381 147.928 197.561 147.95 197.758L149.201 205.618C149.556 207.904 150.397 210.088 151.669 212.022C152.921 213.966 154.583 215.614 156.539 216.849L157.598 217.502C157.705 217.579 157.79 217.682 157.845 217.802C157.903 217.912 157.936 218.034 157.941 218.159C157.94 218.29 157.908 218.419 157.849 218.536C157.796 218.656 157.712 218.76 157.606 218.838L156.555 219.503C154.613 220.761 152.97 222.428 151.74 224.387C150.491 226.335 149.675 228.528 149.347 230.819L148.186 238.693C148.157 238.881 148.065 239.054 147.925 239.183C147.779 239.294 147.601 239.355 147.417 239.356C147.234 239.357 147.055 239.298 146.908 239.189C146.76 239.067 146.664 238.892 146.641 238.701L145.39 230.841C145.043 228.55 144.207 226.36 142.941 224.419C141.674 222.479 139.999 220.838 138.033 219.61L136.993 218.957C136.886 218.88 136.801 218.777 136.746 218.657C136.686 218.541 136.653 218.412 136.65 218.282C136.654 218.157 136.685 218.035 136.742 217.923C136.795 217.803 136.879 217.699 136.985 217.621L138.018 216.956Z" fill="#66BCFF"/>
<path d="M517.975 296.997C519.919 295.729 521.572 294.065 522.827 292.113C524.065 290.156 524.868 287.956 525.183 285.662L526.343 277.789C526.375 277.601 526.467 277.429 526.604 277.298C526.671 277.227 526.751 277.171 526.839 277.132C526.928 277.094 527.024 277.074 527.121 277.073C527.218 277.072 527.314 277.092 527.403 277.129C527.492 277.167 527.573 277.222 527.64 277.292C527.78 277.419 527.868 277.592 527.888 277.78L529.215 285.639C529.568 287.928 530.405 290.114 531.67 292.054C532.935 293.994 534.6 295.643 536.553 296.89L537.593 297.542C537.708 297.606 537.801 297.705 537.859 297.823C537.888 297.947 537.888 298.076 537.861 298.2C537.889 298.317 537.89 298.439 537.863 298.557C537.808 298.682 537.717 298.788 537.601 298.86L536.568 299.525C534.634 300.798 532.987 302.461 531.735 304.408C530.499 306.361 529.69 308.553 529.36 310.84L528.181 318.714C528.16 318.905 528.066 319.081 527.92 319.205C527.777 319.325 527.598 319.393 527.412 319.396C527.226 319.392 527.047 319.327 526.902 319.211C526.767 319.078 526.674 318.908 526.636 318.723L525.384 310.863C525.053 308.568 524.225 306.372 522.957 304.429C521.69 302.486 520.014 300.843 518.046 299.612L516.987 298.96C516.881 298.882 516.797 298.779 516.74 298.66C516.702 298.544 516.702 298.419 516.738 298.303C516.7 298.18 516.699 298.049 516.736 297.926C516.791 297.812 516.875 297.714 516.98 297.642L517.975 296.997Z" fill="#3442D9"/>
<path d="M832.674 154.119C834.621 152.859 836.273 151.194 837.517 149.238C838.761 147.282 839.568 145.081 839.882 142.785L841.043 134.911C841.063 134.714 841.156 134.532 841.304 134.401C841.44 134.269 841.622 134.195 841.811 134.194C842.001 134.193 842.184 134.265 842.321 134.395C842.47 134.525 842.566 134.706 842.588 134.902L843.839 142.762C844.192 145.072 845.033 147.281 846.307 149.241C847.572 151.182 849.239 152.828 851.197 154.069L852.237 154.721C852.344 154.798 852.429 154.901 852.483 155.021C852.51 155.139 852.51 155.261 852.486 155.379C852.514 155.503 852.515 155.631 852.488 155.755C852.434 155.875 852.351 155.98 852.244 156.058L851.212 156.722C849.261 157.975 847.61 159.643 846.379 161.606C845.129 163.568 844.313 165.774 843.985 168.076L842.825 175.95C842.804 176.14 842.71 176.316 842.564 176.44C842.42 176.555 842.24 176.616 842.056 176.613C841.872 176.615 841.693 176.557 841.546 176.446C841.405 176.318 841.311 176.146 841.28 175.958L840.028 168.098C839.687 165.806 838.855 163.615 837.589 161.673C836.322 159.732 834.651 158.086 832.69 156.848L831.631 156.195C831.524 156.119 831.439 156.015 831.384 155.896C831.346 155.773 831.345 155.642 831.382 155.519C831.347 155.403 831.346 155.278 831.38 155.162C831.433 155.041 831.517 154.937 831.623 154.859L832.674 154.119Z" fill="#FFE75C"/>
<path d="M208.778 129.502C210.679 132.54 206.099 132.19 201.201 145.506C182.449 161.311 167.137 156.092 157.086 148.189C191.375 150.626 204.897 123.182 208.778 129.502Z" fill="#EB459F"/>
<path d="M119.709 159.337C144.262 146.359 128.033 112.744 137.027 113.765C140.289 114.141 136.397 118.944 144.15 133.373C138.527 151.794 129.011 158.229 119.709 159.337Z" fill="#EB459F"/>
<path d="M85.3995 149.992C84.7641 147.624 86.7761 146.897 88.2685 147.566C90.1613 149.042 91.5437 150.238 92.7747 151.304C95.3129 155.847 96.4703 161.031 96.1053 166.221C95.7403 171.411 93.8687 176.382 90.7196 180.527C95.418 158.78 86.7851 155.009 85.3995 149.992Z" fill="#EB459F"/>
<path d="M225.413 279.487C238.744 274.46 248.712 267.89 248.593 257.182C248.423 244.008 263.035 238.861 272.219 236.926C267.445 239.08 264.397 243.144 264.757 250.012C265.979 272.327 259.963 281.245 247.119 285.705C238.017 288.881 236.961 298.543 237.587 305.804C237.634 306.712 237.462 307.618 237.083 308.445C236.705 309.272 236.132 309.996 235.414 310.554C234.696 311.113 233.853 311.49 232.958 311.653C232.062 311.816 231.14 311.761 230.271 311.493L203.84 302.648C205.608 297.492 208.443 292.765 212.159 288.775C215.876 284.784 220.392 281.62 225.413 279.487V279.487Z" fill="#EB459F"/>
<path d="M229.499 79.5602C229.499 79.5602 240.734 67.2051 253.845 76.3708C262.831 82.6618 262.768 94.6136 257.749 99.9125C257.749 99.9125 241.759 101.303 234.087 104.001C234.012 104.002 234.872 89.7115 229.499 79.5602Z" fill="#57F287"/>
<defs>
<linearGradient id="paint0_linear_18697_128583" x1="330.098" y1="562.801" x2="625.002" y2="506.926" gradientUnits="userSpaceOnUse">
<stop stop-color="#5865F2"/>
<stop offset="1" stop-color="#3442D9"/>
</linearGradient>
<linearGradient id="paint1_linear_18697_128583" x1="411.155" y1="264.429" x2="225.732" y2="530.101" gradientUnits="userSpaceOnUse">
<stop offset="0.24" stop-color="#FFE75C"/>
<stop offset="1" stop-color="#FF8C19"/>
</linearGradient>
<linearGradient id="paint2_linear_18697_128583" x1="583.995" y1="116.272" x2="662.56" y2="226.873" gradientUnits="userSpaceOnUse">
<stop stop-color="#66BCFF"/>
<stop offset="1" stop-color="#3F99F2"/>
</linearGradient>
<linearGradient id="paint3_linear_18697_128583" x1="86.953" y1="298.464" x2="201.412" y2="171.175" gradientUnits="userSpaceOnUse">
<stop stop-color="#EB459F"/>
<stop offset="0.46" stop-color="#F55FAC"/>
<stop offset="0.99" stop-color="#FF78B9"/>
</linearGradient>
</defs>
</svg>
